HIERARCHY
ROOT root
{
	OFFSET	0	13.1	24.9
	CHANNELS 6  Xposition Yposition Zposition Xrotation Yrotation Zrotation
	JOINT spine_1
	{
		OFFSET	0	9.99999	0
		CHANNELS 3  Xrotation Yrotation Zrotation
		JOINT spine_2
		{
			OFFSET	0	112	-10
			CHANNELS 3  Xrotation Yrotation Zrotation
			JOINT spine_3
			{
				OFFSET	0	206.5	19.3
				CHANNELS 3  Xrotation Yrotation Zrotation
				JOINT spine_4
				{
					OFFSET	0	110.4	14.6
					CHANNELS 3  Xrotation Yrotation Zrotation
					JOINT neck_1
					{
						OFFSET	0	71.8	-50.3
						CHANNELS 3  Xrotation Yrotation Zrotation
						JOINT neck_2
						{
							OFFSET	0	86.2	-25.8
							CHANNELS 3  Xrotation Yrotation Zrotation
							JOINT head_ee
							{
								OFFSET	0	179.8	-8.7
								CHANNELS 3  Xrotation Yrotation Zrotation
								End Site
								{
									OFFSET	1	0	0
								}
							}
						}
					}
					JOINT left_clavicle
					{
						OFFSET	-43.2	22.4	-70.8
						CHANNELS 3  Xrotation Yrotation Zrotation
						JOINT left_shoulder
						{
							OFFSET	-93.9	-5.79999	48.7
							CHANNELS 3  Xrotation Yrotation Zrotation
							JOINT left_elbow
							{
								OFFSET	-291.4	-30.8	15.2
								CHANNELS 3  Xrotation Yrotation Zrotation
								JOINT left_lowarm_twist
								{
									OFFSET	-110.7	-3.89999	13.6
									CHANNELS 3  Xrotation Yrotation Zrotation
									JOINT left_hand
									{
										OFFSET	-110.7	-3.89999	13.6
										CHANNELS 3  Xrotation Yrotation Zrotation
										JOINT left_ee
										{
											OFFSET	-80.8	-5.10001	12.1
											CHANNELS 3  Xrotation Yrotation Zrotation
											End Site
											{
												OFFSET	1	0	0
											}
										}
									}
								}
							}
						}
					}
					JOINT right_clavicle
					{
						OFFSET	43.2	22.4	-70.8
						CHANNELS 3  Xrotation Yrotation Zrotation
						JOINT right_shoulder
						{
							OFFSET	93.9	-5.79999	48.7
							CHANNELS 3  Xrotation Yrotation Zrotation
							JOINT right_elbow
							{
								OFFSET	291.4	-30.8	15.2
								CHANNELS 3  Xrotation Yrotation Zrotation
								JOINT right_lowarm_twist
								{
									OFFSET	110.7	-3.89999	13.6
									CHANNELS 3  Xrotation Yrotation Zrotation
									JOINT right_hand
									{
										OFFSET	110.7	-3.89999	13.6
										CHANNELS 3  Xrotation Yrotation Zrotation
										JOINT right_ee
										{
											OFFSET	80.8	-5.10001	12.1
											CHANNELS 3  Xrotation Yrotation Zrotation
											End Site
											{
												OFFSET	1	0	0
											}
										}
									}
								}
							}
						}
					}
				}
			}
		}
	}
	JOINT left_hip
	{
		OFFSET	-82.8	-127.5	0.300001
		CHANNELS 3  Xrotation Yrotation Zrotation
		JOINT left_knee
		{
			OFFSET	-28.2	-396.7	2.2
			CHANNELS 3  Xrotation Yrotation Zrotation
			JOINT left_ankle
			{
				OFFSET	-11.7	-411.3	35.4
				CHANNELS 3  Xrotation Yrotation Zrotation
				JOINT left_toes
				{
					OFFSET	0	-60	-88.6
					CHANNELS 3  Xrotation Yrotation Zrotation
					JOINT left_foot_ee
					{
						OFFSET	-22.5	-16.5	-42.2
						CHANNELS 3  Xrotation Yrotation Zrotation
						End Site
						{
							OFFSET	1	0	0
						}
					}
				}
			}
		}
	}
	JOINT right_hip
	{
		OFFSET	82.8	-127.5	0.300001
		CHANNELS 3  Xrotation Yrotation Zrotation
		JOINT right_knee
		{
			OFFSET	28.2	-396.7	2.2
			CHANNELS 3  Xrotation Yrotation Zrotation
			JOINT right_ankle
			{
				OFFSET	11.7	-411.3	35.4
				CHANNELS 3  Xrotation Yrotation Zrotation
				JOINT right_toes
				{
					OFFSET	0	-60	-88.6
					CHANNELS 3  Xrotation Yrotation Zrotation
					JOINT right_foot_ee
					{
						OFFSET	22.5	-16.5	-42.2
						CHANNELS 3  Xrotation Yrotation Zrotation
						End Site
						{
							OFFSET	1	0	0
						}
					}
				}
			}
		}
	}
}
MOTION
Frames: 9
Frame Time: 0.02
1275.03 618.818 -1498.0 -53.1929 63.7487 60.4497 8.67889 -0.744717 -3.68933 8.68632 -0.508613 -3.72916 8.70505 -0.285518 -3.75281 8.68647 -0.874223 -3.66084 -11.9473 -5.59616 2.13009 -12.0088 -11.9801 0.470763 -0.0 0.0 -0.0 11.102 -15.9306 22.1211 -0.861442 -15.2945 62.8748 1.61442 -38.6477 0.566149 85.166 -4.44641 -8.87376 2.28333 -0.853981 15.1022 -0.0 0.0 -0.0 0.168887 -24.0385 -3.00522 89.7708 -63.3736 24.6773 0.191418 5.41688 -0.0090553 85.0289 4.42999 8.86747 0.429812 25.2678 7.89896 0.0 0.0 0.0 19.5937 11.734 -16.3304 -21.9492 0.267389 3.33711 38.3908 -26.8001 -5.55008 32.5435 -0.0 -0.0 -0.0 0.0 -0.0 47.804 -5.8593 -7.64137 -3.22321 -0.119226 -0.480227 7.04646 1.93196 1.02697 30.7749 -0.0 -0.0 0.0 0.0 0.0 
1245.94 618.39 -1517.51 -53.3974 64.8217 60.1847 8.6836 -0.796402 -3.51236 8.69028 -0.571432 -3.55584 8.7127 -0.359134 -3.58348 8.69596 -0.920228 -3.482 -10.3694 -5.44893 2.45108 -10.3994 -11.9115 0.989935 -0.0 0.0 -0.0 10.5752 -17.6775 20.845 -6.39732 -15.7216 63.44 1.6873 -39.8869 0.61228 85.2305 -4.45415 -8.87671 3.66046 6.74949 27.8531 -0.0 0.0 -0.0 0.92127 -24.2916 -4.04281 90.1216 -61.3574 26.2883 0.191908 5.43066 -0.00910162 85.1445 4.44383 8.87277 0.251627 24.1594 8.59494 0.0 0.0 0.0 17.9783 10.6285 -16.7235 -23.5792 0.235999 3.58524 38.0747 -25.6491 -5.45223 38.3948 -0.0 -0.0 -0.0 0.0 -0.0 46.2494 -5.56247 -7.71108 -5.45403 -0.185825 -0.81609 13.9426 -0.220318 1.96962 35.1748 -0.0 -0.0 0.0 0.0 0.0 
1223.47 619.356 -1528.47 -50.3046 64.5484 57.3192 8.75622 -0.864907 -3.59919 8.76321 -0.634285 -3.64684 8.78972 -0.421564 -3.67747 8.77224 -0.996693 -3.56499 -12.7132 -5.83607 2.2525 -12.7941 -12.5126 0.434059 -0.0 0.0 -0.0 10.8707 -14.4941 21.6574 -8.56674 -15.7191 62.7531 1.54787 -37.4772 0.525114 85.2085 -4.4515 -8.8757 4.84733 8.42633 37.7714 -0.0 0.0 -0.0 -0.704273 -24.3159 -1.86175 90.2878 -65.5209 23.4057 0.182822 5.17499 -0.0082619 83.9915 4.30617 8.81857 2.08936 24.4621 -3.23897 0.0 0.0 0.0 17.0897 5.77837 -16.7163 -29.3442 0.0686273 4.45379 38.4228 -21.4284 -5.27149 35.5358 -0.0 -0.0 -0.0 0.0 -0.0 44.677 -4.05686 -9.8513 -5.40226 -0.184427 -0.808268 13.8901 -7.40102 1.94634 40.1676 -0.0 -0.0 0.0 0.0 0.0 
1205.26 626.602 -1543.04 -51.6215 65.354 59.1747 8.65102 -0.877683 -3.74851 8.65861 -0.637554 -3.79666 8.68606 -0.409234 -3.82797 8.66703 -1.00824 -3.71556 -13.7335 -7.62959 1.86731 -13.9053 -15.6891 -0.621818 -0.0 0.0 -0.0 11.3679 -13.4402 22.8089 -9.3846 -14.7517 64.4417 1.32103 -33.1991 0.39382 85.3144 -4.4642 -8.88052 3.65432 -3.18329 23.9246 -0.0 0.0 -0.0 0.365751 -24.1166 -3.27885 88.2778 -64.7813 21.0049 0.185868 5.26071 -0.0085389 85.1575 4.44539 8.87337 2.23139 20.7806 -5.92526 0.0 0.0 0.0 16.8263 0.811705 -16.8549 -33.1234 -0.0881845 5.01243 37.341 -16.6043 -4.97625 33.6734 -0.0 -0.0 -0.0 0.0 -0.0 43.2265 -4.01503 -10.4081 -5.79521 -0.194855 -0.867672 12.2573 -7.96122 1.72824 40.1112 -0.0 -0.0 0.0 0.0 0.0 
1177.14 628.062 -1554.0 -50.1751 65.6669 57.1701 8.74878 -0.872041 -3.791 8.75656 -0.629225 -3.83871 8.78336 -0.404975 -3.86875 8.7639 -1.01046 -3.75652 -15.2269 -4.97531 1.84276 -15.3183 -10.6061 0.0626841 -0.0 0.0 -0.0 10.3938 -13.481 20.6255 -12.8928 -15.1773 66.5942 1.3367 -33.5093 0.402436 83.6075 -4.26058 -8.79991 3.575 2.30951 25.5782 -0.0 0.0 -0.0 1.05104 -24.3608 -4.22274 75.4071 -63.1294 8.52172 0.19208 5.43551 -0.00911799 85.1569 4.44532 8.87334 1.59408 23.925 -0.271504 0.0 0.0 0.0 19.2003 0.449385 -17.2885 -39.8871 -0.459598 5.98247 31.8275 -15.5366 -4.38246 36.689 -0.0 -0.0 -0.0 0.0 -0.0 41.2075 -7.35738 -9.65424 -8.74776 -0.260124 -1.31601 17.5732 -1.14294 2.43962 40.14 -0.0 -0.0 0.0 0.0 0.0 
1165.09 632.736 -1564.4 -52.9384 66.896 61.2831 8.71664 -0.986843 -4.15089 8.72593 -0.720951 -4.20514 8.7605 -0.473875 -4.24004 8.73723 -1.137 -4.11236 -16.8203 -7.1421 2.82589 -17.0557 -15.2966 0.0211268 -0.0 0.0 -0.0 11.1982 -13.1415 22.4343 -14.2813 -13.7329 67.1555 1.26718 -32.1161 0.364762 79.3648 -3.76551 -8.57356 4.57318 -4.36243 30.3623 -0.0 0.0 -0.0 1.77755 -24.0842 -5.18444 82.1252 -61.621 14.6267 0.177354 5.02102 -0.00777606 82.6562 4.14815 8.75235 1.98154 23.5811 -2.95591 0.0 0.0 0.0 18.3498 -11.1212 -16.013 -42.9341 -0.663908 6.40407 31.3615 -8.66131 -4.16645 33.2922 -0.0 -0.0 -0.0 0.0 -0.0 39.9788 -7.06261 -10.7561 -9.51017 -0.273217 -1.43227 20.9666 -5.56322 2.85074 38.1958 -0.0 -0.0 0.0 0.0 0.0 
1149.57 635.014 -1577.76 -52.1256 66.8239 60.916 8.77006 -1.02076 -4.24962 8.77979 -0.748532 -4.30581 8.81667 -0.499893 -4.34164 8.79231 -1.1787 -4.20862 -17.686 -6.4272 1.96749 -17.8908 -13.4319 -0.615346 -0.0 0.0 -0.0 11.4256 -13.3023 22.9426 -16.551 -13.5538 66.4889 1.06495 -27.8128 0.263681 85.1915 -4.44946 -8.87492 5.12793 -11.151 31.3005 -0.0 0.0 -0.0 1.17416 -23.7472 -4.34284 77.7789 -63.8492 7.0972 0.19397 5.48867 -0.00929783 84.7073 4.39151 8.85254 1.61343 22.8603 -0.887932 0.0 0.0 0.0 18.9442 -17.0677 -14.8599 -45.998 -0.891761 6.81666 29.7372 -2.85826 -3.90799 37.0854 -0.0 -0.0 -0.0 0.0 -0.0 38.9447 -7.34121 -12.5256 -10.4395 -0.287081 -1.5742 22.4643 -6.64406 3.0315 39.4067 -0.0 -0.0 0.0 0.0 0.0 
1131.97 638.095 -1588.28 -51.3368 66.4508 59.8201 9.00655 -0.841136 -4.24225 9.01639 -0.569741 -4.28707 9.03908 -0.338727 -4.31143 9.01458 -1.01478 -4.20416 -20.3464 -7.54354 3.7038 -20.7207 -16.3964 0.178731 -0.0 0.0 -0.0 11.0549 -7.93496 22.1529 -17.1136 -11.3755 67.2349 0.938651 -24.9371 0.207558 74.649 -3.23651 -8.27983 5.64723 -10.4408 35.8634 -0.0 0.0 -0.0 1.92884 -23.8426 -5.37694 70.6407 -63.499 -2.62728 0.192587 5.44977 -0.00916601 83.2389 4.21692 8.7817 1.38632 25.1547 1.63993 0.0 0.0 0.0 20.0775 -19.7414 -13.4679 -47.6735 -1.02564 7.03706 25.8914 -0.00511496 -3.45592 37.0351 -0.0 -0.0 -0.0 0.0 -0.0 37.9988 -7.2406 -13.3232 -11.561 -0.300744 -1.74573 23.3346 -7.725 3.13577 39.9955 -0.0 -0.0 0.0 0.0 0.0 
1097.14 640.742 -1605.1 -62.2777 69.8583 72.5797 9.59785 -0.879146 -4.31585 9.60801 -0.603004 -4.36292 9.63156 -0.413434 -4.38491 9.60642 -1.10013 -4.26497 -23.199 -9.83804 1.0773 -23.9145 -19.4555 -3.81764 -0.0 0.0 -0.0 10.5773 -6.56656 21.0905 -20.3915 -15.7213 70.3339 0.760707 -20.648 0.138575 67.2597 -2.46109 -7.73523 5.05801 -13.1666 29.6536 -0.0 0.0 -0.0 1.38864 -24.2191 -4.66701 84.0349 -62.9925 12.2156 0.195813 5.54049 -0.00947492 82.4456 4.12336 8.74157 0.1339 21.7964 8.37369 0.0 0.0 0.0 17.6383 -26.8252 -14.1115 -47.5554 -1.01599 7.02163 25.4929 4.21694 -3.39055 36.3133 -0.0 -0.0 -0.0 0.0 -0.0 33.4661 -9.55539 -13.4407 -12.4192 -0.30893 -1.87715 34.734 -8.16176 4.37685 23.9269 -0.0 -0.0 0.0 0.0 0.0 
